HIERARCHY
ROOT hip
{
	OFFSET 0.000000 0.000000 0.000000
	CHANNELS 6 Xposition Yposition Zposition Xrotation Zrotation Yrotation 
	JOINT abdomen
	{
		OFFSET 0.000000 3.422050 0.000000
		CHANNELS 3 Xrotation Zrotation Yrotation 
		JOINT chest
		{
			OFFSET 0.000000 8.486693 -0.6844110
			CHANNELS 3 Xrotation Zrotation Yrotation 
			JOINT neck
			{
				OFFSET 0.000000 10.26616 -0.2737640
				CHANNELS 3 Xrotation Zrotation Yrotation 
				JOINT head
				{
					OFFSET 0.000000 3.148285 0.000000
					CHANNELS 3 Xrotation Zrotation Yrotation 
					End Site
					{
						OFFSET 0.000000 3.148289 0.000000
					}
				}
			}
			JOINT lCollar
			{
				OFFSET 3.422053 6.707223 -0.8212930
				CHANNELS 3 Yrotation Zrotation Xrotation 
				JOINT lShldr
				{
					OFFSET 3.285171 0.000000 0.000000
					CHANNELS 3 Zrotation Yrotation Xrotation 
					JOINT lForeArm
					{
						OFFSET 10.12928 0.000000 0.000000
						CHANNELS 3 Yrotation Zrotation Xrotation 
						JOINT lHand
						{
							OFFSET 8.486692 0.000000 0.000000
							CHANNELS 3 Zrotation Yrotation Xrotation 
							End Site
							{
								OFFSET 4.106464 0.000000 0.000000
							}
						}
					}
				}
			}
			JOINT rCollar
			{
				OFFSET -3.558935 6.707223 -0.8212930
				CHANNELS 3 Yrotation Zrotation Xrotation 
				JOINT rShldr
				{
					OFFSET -3.148289 0.000000 0.000000
					CHANNELS 3 Zrotation Yrotation Xrotation 
					JOINT rForeArm
					{
						OFFSET -10.26616 0.000000 0.000000
						CHANNELS 3 Yrotation Zrotation Xrotation 
						JOINT rHand
						{
							OFFSET -8.349810 0.000000 0.000000
							CHANNELS 3 Zrotation Yrotation Xrotation 
							End Site
							{
								OFFSET -4.106464 0.000000 0.000000
							}
						}
					}
				}
			}
		}
	}
	JOINT lThigh
	{
		OFFSET 5.338403 -1.642589 1.368821
		CHANNELS 3 Xrotation Zrotation Yrotation 
		JOINT lShin
		{
			OFFSET -2.053232 -20.12167 0.000000
			CHANNELS 3 Xrotation Zrotation Yrotation 
			JOINT lFoot
			{
				OFFSET 0.000000 -19.30038 -1.231939
				CHANNELS 3 Xrotation Yrotation Zrotation 
				End Site
				{
					OFFSET 0.000000 -2.463878 4.653993
				}
			}
		}
	}
	JOINT rThigh
	{
		OFFSET -5.338403 -1.642589 1.368821
		CHANNELS 3 Xrotation Zrotation Yrotation 
		JOINT rShin
		{
			OFFSET 2.053232 -20.12167 0.000000
			CHANNELS 3 Xrotation Zrotation Yrotation 
			JOINT rFoot
			{
				OFFSET 0.000000 -19.30038 -1.231939
				CHANNELS 3 Xrotation Yrotation Zrotation 
				End Site
				{
					OFFSET 0.000000 -2.463878 4.653993
				}
			}
		}
	}
}
MOTION
Frames:	7
Frame Time:	0.06666667
0.000000 2.001928 0.000000 -81.67433 0.000000 0.000000 5.663385 5.806005e-18 1.503316 20.00000 0.7770763 0.4813904 19.96288 0.7919906 -11.08787 18.38887 0.000000 2.851015 -1.608798 -16.08798 0.000000 -45.31355 -5.521603 0.7235278 -40.77062 0.000000 3.274341 4.497333 5.702924 23.57034 -1.242862 8.439403 0.000000 65.23297 -10.32239 1.453175e-17 60.65973 0.000000 20.00000 -7.731091 6.093956 23.19655 -29.13228 0.000000 0.000000 48.48168 0.000000 0.000000 -2.306310 0.000000 0.000000 -50.46815 0.000000 -4.222798 80.18628 0.000000 0.000000 21.11901 0.000000 0.000000 
0.000000 2.003187 0.000000 -82.96806 0.000000 0.000000 4.374373 5.104163e-18 1.563356 20.00000 0.7816780 0.4508106 20.67889 0.8122357 -11.37130 17.11114 0.000000 3.111024 -1.664588 -16.64588 0.000000 -45.88179 -8.248895 0.7416137 -37.24047 0.000000 4.492668 4.215492 5.345531 23.97328 -0.6377869 8.804570 0.000000 70.26363 -9.290648 1.248418e-17 57.67085 0.000000 20.00000 -6.869565 6.640668 23.50895 -26.11860 0.000000 0.000000 45.08491 0.000000 0.000000 -1.409759 0.000000 0.000000 -44.84417 0.000000 -4.643716 71.47348 0.000000 0.000000 19.99138 0.000000 0.000000 
0.000000 2.004526 0.000000 -84.16112 0.000000 0.000000 3.070793 4.394389e-18 1.624075 19.61521 0.7860996 0.4214283 21.58112 0.8377463 -11.72845 15.41294 0.000000 3.456596 -1.717669 -17.17669 0.000000 -46.24665 -10.00007 0.7532266 -33.21294 0.000000 5.882652 3.840907 4.870532 24.50881 -0.06208016 9.152013 0.000000 73.94654 -8.535316 1.098518e-17 54.94506 0.000000 20.00000 -5.971105 7.210819 23.83475 -23.25120 0.000000 0.000000 41.54251 0.000000 0.000000 -0.2181772 0.000000 0.000000 -38.97906 0.000000 -5.082679 62.38715 0.000000 0.000000 18.81541 0.000000 0.000000 
0.000000 2.005785 0.000000 -85.25033 0.000000 0.000000 1.781762 3.692538e-18 1.684116 18.49199 0.7990059 0.3356617 22.58125 0.8660251 -12.12435 13.37942 0.000000 3.870402 -1.767498 -17.67498 0.000000 -46.37243 -10.60373 0.7572297 -28.84278 0.000000 7.390882 3.392358 4.301741 25.15008 0.4783509 9.478167 0.000000 75.29491 -8.258778 1.043637e-17 52.64079 0.000000 20.00000 -5.060215 7.788857 24.16506 -20.55949 0.000000 0.000000 37.95111 0.000000 0.000000 1.208687 0.000000 0.000000 -33.03282 0.000000 -5.527716 53.17510 0.000000 0.000000 17.62317 0.000000 0.000000 
0.000000 2.006811 0.000000 -86.23281 0.000000 0.000000 0.5360755 3.014285e-18 1.742138 16.72136 0.8193517 0.2004586 23.58141 0.8943045 -12.52026 11.11255 0.000000 4.331694 -1.813563 -18.13563 0.000000 -46.60241 -10.28401 0.7645497 -24.29795 0.000000 8.959400 2.892336 3.667679 25.86494 0.9779611 9.779685 0.000000 74.83373 -8.100215 1.012169e-17 50.89193 0.000000 20.00000 -4.161740 8.359017 24.49087 -18.07110 0.000000 0.000000 34.40866 0.000000 0.000000 2.799289 0.000000 0.000000 -27.16762 0.000000 -5.966686 44.08863 0.000000 0.000000 16.44719 0.000000 0.000000 
0.000000 2.007481 0.000000 -87.10596 0.000000 0.000000 -0.6384435 2.374783e-18 1.796845 14.44673 0.8454885 0.02677179 24.48368 0.9198163 -12.87743 8.725982 0.000000 4.817342 -1.855392 -18.55392 0.000000 -47.26463 -9.363400 0.7856268 -19.75306 0.000000 10.52793 2.365913 3.000139 26.61755 1.431624 10.05347 0.000000 73.50584 -7.643652 9.215616e-18 49.80011 0.000000 20.00000 -3.300188 8.905746 24.80328 -15.81156 0.000000 0.000000 31.01178 0.000000 0.000000 4.473875 0.000000 0.000000 -21.54345 0.000000 -6.387618 35.37555 0.000000 0.000000 15.31952 0.000000 0.000000 
0.000000 2.007714 0.000000 -87.86745 0.000000 0.000000 -1.715559 1.788314e-18 1.847016 11.85239 0.8752992 -0.1713285 25.19976 0.9400633 -13.16088 6.339394 0.000000 5.302995 -1.892555 -18.92555 0.000000 -48.27922 -7.952940 0.8179190 -15.38279 0.000000 12.03620 1.839485 2.332592 27.37016 1.834685 10.29672 0.000000 71.47138 -6.944153 7.827417e-18 49.42879 0.000000 20.00000 -2.499057 9.414133 25.09379 -13.80405 0.000000 0.000000 27.85313 0.000000 0.000000 6.148478 0.000000 0.000000 -16.31371 0.000000 -6.779028 27.27353 0.000000 0.000000 14.27095 0.000000 0.000000 
